<svg width="26" height="26" viewBox="0 0 26 26" fill="none" xmlns="http://www.w3.org/2000/svg">
<path d="M9.43637 23.0644H15.7267C20.9686 23.0644 23.0654 20.9676 23.0654 15.7257V9.43539C23.0654 4.19345 20.9686 2.09668 15.7267 2.09668H9.43637C4.19443 2.09668 2.09766 4.19345 2.09766 9.43539V15.7257C2.09766 20.9676 4.19443 23.0644 9.43637 23.0644Z" stroke="black" stroke-opacity="0.6" stroke-width="1.57258" stroke-linecap="round" stroke-linejoin="round"/>
<path d="M9.43662 10.4836C10.5946 10.4836 11.5334 9.54483 11.5334 8.38681C11.5334 7.2288 10.5946 6.29004 9.43662 6.29004C8.2786 6.29004 7.33984 7.2288 7.33984 8.38681C7.33984 9.54483 8.2786 10.4836 9.43662 10.4836Z" stroke="black" stroke-opacity="0.6" stroke-width="1.57258" stroke-linecap="round" stroke-linejoin="round"/>
<path d="M2.80078 19.8661L7.96933 16.3959C8.79756 15.8403 9.99272 15.9032 10.7371 16.5427L11.083 16.8467C11.9008 17.5491 13.2217 17.5491 14.0395 16.8467L18.4008 13.104C19.2185 12.4015 20.5395 12.4015 21.3572 13.104L23.0661 14.5717" stroke="black" stroke-opacity="0.6" stroke-width="1.57258" stroke-linecap="round" stroke-linejoin="round"/>
</svg>
