<svg width="16" height="16" viewBox="0 0 16 16" fill="none" xmlns="http://www.w3.org/2000/svg">
<g clip-path="url(#clip0_350_16783)">
<path fill-rule="evenodd" clip-rule="evenodd" d="M3.14481 13.0165C2.28252 13.1858 1.4744 13.5625 0.790275 14.114C1.69157 14.8384 2.80031 15.2566 3.95548 15.3079C5.11065 15.3592 6.2521 15.041 7.21409 14.3994C5.73082 14.4751 4.27482 13.9803 3.14481 13.0165ZM7.99943 5.45547C9.27177 4.94609 10.1759 3.94591 10.5856 2.97947C11.0319 1.92647 10.9551 0.6875 9.54381 0.6875C9.26552 0.6888 8.9922 0.761374 8.74992 0.898303C8.50765 1.03523 8.30449 1.23195 8.15984 1.46969C8.14322 1.49765 8.11959 1.52079 8.09128 1.5368C8.06297 1.55282 8.03097 1.56116 7.99844 1.561C7.96592 1.56084 7.934 1.55218 7.90585 1.53588C7.8777 1.51959 7.8543 1.49622 7.83796 1.46809C7.56749 1.00797 7.02959 0.6875 6.45506 0.6875C5.04374 0.6875 4.96696 1.92653 5.41331 2.97953C5.82299 3.94597 6.72709 4.94606 7.99943 5.45553V5.45547ZM10.9298 3.12447C10.476 4.19484 9.47865 5.28644 8.06609 5.83169C8.02316 5.8481 7.9757 5.8481 7.93277 5.83169C6.5234 5.29191 5.52074 4.18997 5.06909 3.12447C4.75156 2.37544 4.63046 1.42637 5.16349 0.817187C5.43859 0.50275 5.86459 0.3125 6.45506 0.3125C6.7511 0.313602 7.04321 0.380433 7.31029 0.508168C7.57737 0.635902 7.81275 0.821352 7.99943 1.05113C8.18612 0.821355 8.4215 0.635908 8.68857 0.508174C8.95565 0.380439 9.24776 0.313606 9.54381 0.3125C10.569 0.3125 11.1819 0.903125 11.2014 1.86075C11.2093 2.25137 11.1156 2.68625 10.9298 3.12453V3.12447ZM8.14259 6.6C8.75201 7.29826 9.18531 8.13234 9.40621 9.03244C10.0524 8.35137 10.854 7.83704 11.7424 7.53347C11.7676 7.52496 11.7944 7.52195 11.821 7.52462C11.8475 7.5273 11.8732 7.53561 11.8963 7.54899C11.9193 7.56238 11.9393 7.58053 11.9548 7.60224C11.9703 7.62394 11.981 7.64871 11.9861 7.67487C12.1572 8.54538 12.1267 9.4435 11.897 10.3004C12.7289 10.0909 13.5968 10.068 14.4386 10.2333C14.4656 10.2386 14.4911 10.2497 14.5133 10.2659C14.5356 10.2821 14.5539 10.3031 14.5671 10.3272C14.5803 10.3514 14.5881 10.3781 14.5897 10.4056C14.5914 10.4331 14.587 10.4606 14.5769 10.4861C14.3514 11.1426 14.0101 11.7533 13.5693 12.2894C13.45 12.4344 13.3232 12.574 13.1889 12.7082C14.0895 12.9295 14.924 13.3634 15.6224 13.9736C15.6426 13.9914 15.6588 14.0133 15.6698 14.0379C15.6808 14.0625 15.6864 14.0892 15.6861 14.1162C15.6858 14.1431 15.6797 14.1697 15.6682 14.1941C15.6567 14.2185 15.6401 14.2401 15.6194 14.2574C14.5734 15.1704 13.2347 15.6782 11.8463 15.6888C10.4579 15.6993 9.11175 15.2118 8.05199 14.3147C8.01765 14.3043 7.98097 14.3043 7.94662 14.3147C6.88684 15.2118 5.54066 15.6992 4.15227 15.6887C2.76387 15.6782 1.42523 15.1703 0.379181 14.2574C0.358547 14.24 0.341906 14.2184 0.330399 14.1941C0.318891 14.1697 0.312789 14.1431 0.31251 14.1162C0.312231 14.0892 0.317782 14.0625 0.328782 14.0379C0.339783 14.0133 0.355973 13.9914 0.376243 13.9736C1.07463 13.3633 1.90912 12.9293 2.80977 12.708C2.1817 12.0804 1.70581 11.3173 1.41865 10.4772C1.41014 10.4519 1.40713 10.4251 1.4098 10.3985C1.41248 10.372 1.42078 10.3464 1.43416 10.3233C1.44754 10.3002 1.46569 10.2803 1.4874 10.2648C1.5091 10.2493 1.53386 10.2386 1.56002 10.2334C2.40179 10.0681 3.2697 10.091 4.10159 10.3004C3.87188 9.44354 3.84139 8.54544 4.01246 7.67494C4.01763 7.64877 4.02831 7.62401 4.04381 7.6023C4.05931 7.58059 4.07926 7.56244 4.10233 7.54906C4.1254 7.53567 4.15106 7.52736 4.17759 7.52469C4.20413 7.52201 4.23093 7.52502 4.25621 7.53353C5.14459 7.8371 5.94618 8.35141 6.59237 9.03244C6.81371 8.131 7.248 7.29579 7.85881 6.59688C7.8766 6.57665 7.89854 6.5605 7.92315 6.54953C7.94775 6.53855 7.97443 6.53302 8.00136 6.53329C8.0283 6.53357 8.05486 6.53965 8.07923 6.55113C8.1036 6.5626 8.12521 6.5792 8.14259 6.59978V6.6ZM9.49884 9.48903C9.61136 10.189 9.5956 10.9037 9.45234 11.598C10.04 11.0762 10.7265 10.6776 11.4711 10.4259C11.7218 9.63021 11.7853 8.78734 11.6566 7.96303C10.8222 8.28534 10.0808 8.80968 9.49884 9.48903ZM9.2504 12.3284C9.04233 12.9251 8.73817 13.4839 8.34993 13.9826C9.56045 14.1476 10.7912 13.8999 11.8437 13.2794C12.8961 12.659 13.7088 11.702 14.1506 10.563C13.2513 10.4237 12.3315 10.5124 11.4754 10.8208C10.6193 11.1293 9.85436 11.6476 9.25056 12.3284H9.2504ZM7.64899 13.9825C6.43847 14.1475 5.20767 13.8997 4.15524 13.2793C3.1028 12.6588 2.29011 11.7019 1.84834 10.5628C2.60484 10.4455 3.37758 10.4894 4.11596 10.6915C4.85433 10.8937 5.54166 11.2495 6.13293 11.7358C6.35347 11.9167 6.55932 12.1148 6.74856 12.3282C6.76343 12.3709 6.77878 12.4134 6.79462 12.4557C7.00067 13.0049 7.28875 13.5196 7.64906 13.9825H7.64899ZM6.54659 11.5979C6.40329 10.9035 6.38753 10.1889 6.50009 9.48888C5.91812 8.80954 5.17669 8.28521 4.34224 7.96291C4.21364 8.78717 4.27714 9.63 4.52777 10.4257C5.27242 10.6773 5.95892 11.0759 6.54652 11.5979H6.54659ZM7.99943 7.01088C8.77504 7.97671 9.1978 9.17832 9.1978 10.417C9.1978 11.6557 8.77504 12.8574 7.99943 13.8232C7.2238 12.8574 6.80102 11.6557 6.80102 10.417C6.80102 9.17831 7.2238 7.9767 7.99943 7.01088ZM8.78474 14.3993C9.74672 15.041 10.8882 15.3592 12.0434 15.3079C13.1985 15.2566 14.3073 14.8384 15.2086 14.114C14.5245 13.5625 13.7165 13.1859 12.8543 13.0166C11.7243 13.9805 10.2681 14.4753 8.78474 14.3993Z" fill="#B38A53"/>
</g>
<defs>
<clipPath id="clip0_350_16783">
<rect width="16" height="16" fill="white"/>
</clipPath>
</defs>
</svg>
