<svg width="16" height="16" viewBox="0 0 16 16" fill="none" xmlns="http://www.w3.org/2000/svg">
<g clip-path="url(#clip0_350_16778)">
<path d="M15.6873 4.42151C15.6873 3.78003 15.1657 3.25848 14.5242 3.25848H11.0217V2.20074C11.0217 1.33832 10.3201 0.636719 9.4577 0.636719H6.54205C5.67962 0.636719 4.97802 1.33832 4.97802 2.20074V3.25848H1.47522C0.834044 3.25848 0.3125 3.78003 0.3125 4.42151V12.8831C0.3125 14.2527 1.4267 15.3669 2.79632 15.3669H13.2031C14.5731 15.3669 15.6873 14.2527 15.6873 12.8831L15.6873 4.42151ZM5.97778 2.20074C5.97778 1.88977 6.23108 1.63648 6.54205 1.63648H9.4577C9.76867 1.63648 10.022 1.88977 10.022 2.20074V3.25848H5.97778L5.97778 2.20074ZM1.31225 4.42151C1.31225 4.33148 1.3855 4.25824 1.47522 4.25824H14.5242C14.6143 4.25824 14.6875 4.33148 14.6875 4.42151V6.02917C14.6875 7.12232 13.7979 8.0119 12.7048 8.0119H9.35037V7.6582C9.35037 7.05517 8.85995 6.56476 8.25693 6.56476H7.7424C7.13968 6.56476 6.64926 7.05518 6.64926 7.6582V8.0119H3.29498C2.20184 8.0119 1.31225 7.12232 1.31225 6.02917V4.42151ZM8.35062 7.6582V9.21155C8.35062 9.26312 8.3085 9.30523 8.25693 9.30523H7.74241C7.69083 9.30523 7.64902 9.26312 7.64902 9.21155V7.6582C7.64902 7.60663 7.69083 7.56452 7.74241 7.56452H8.25693C8.30851 7.56452 8.35062 7.60663 8.35062 7.6582ZM13.2031 14.3672H2.79632C1.97815 14.3672 1.31226 13.7013 1.31226 12.8831V8.25097C1.83989 8.72235 2.53344 9.01166 3.29498 9.01166H6.64927V9.21155C6.64927 9.81458 7.13968 10.305 7.74241 10.305H8.25693C8.85996 10.305 9.35038 9.81457 9.35038 9.21155V9.01166H12.7048C13.4663 9.01166 14.1599 8.72235 14.6875 8.25097V12.8831C14.6875 13.7013 14.0216 14.3672 13.2031 14.3672Z" fill="#B38A53"/>
</g>
<defs>
<clipPath id="clip0_350_16778">
<rect width="16" height="16" fill="white"/>
</clipPath>
</defs>
</svg>
